<svg xmlns="http://www.w3.org/2000/svg" xmlns:xlink="http://www.w3.org/1999/xlink" width="100" height="100" viewBox="0 0 100 100">
  <defs>
    <clipPath id="clip-custom_6">
      <rect width="100" height="100"/>
    </clipPath>
  </defs>
  <g id="custom_6" data-name="custom – 6" clip-path="url(#clip-custom_6)">
    <rect width="100" height="100" fill="#fff" fill-opacity="0"/>
    <path id="c" d="M386.57,265.309a17.024,17.024,0,0,1-7.366,1.535c-7.737,0-12.769-5.3-12.769-13.139,0-7.9,5.4-13.617,13.777-13.617a15.6,15.6,0,0,1,6.464,1.324l-1.061,3.6a10.819,10.819,0,0,0-5.4-1.219c-5.882,0-9.062,4.346-9.062,9.7,0,5.935,3.815,9.591,8.9,9.591a13.235,13.235,0,0,0,5.721-1.273Z" transform="translate(-326.494 -204.371)" fill="#e50019"/>
  </g>
</svg>
