<svg xmlns="http://www.w3.org/2000/svg" xmlns:xlink="http://www.w3.org/1999/xlink" width="100" height="100" viewBox="0 0 100 100">
  <defs>
    <clipPath id="clip-custom_4">
      <rect width="100" height="100"/>
    </clipPath>
  </defs>
  <g id="custom_4" data-name="custom – 4" clip-path="url(#clip-custom_4)">
    <rect width="100" height="100" fill="#fff" fill-opacity="0"/>
    <path id="c" d="M386.57,265.309a17.024,17.024,0,0,1-7.366,1.535c-7.737,0-12.769-5.3-12.769-13.139,0-7.9,5.4-13.617,13.777-13.617a15.6,15.6,0,0,1,6.464,1.324l-1.061,3.6a10.819,10.819,0,0,0-5.4-1.219c-5.882,0-9.062,4.346-9.062,9.7,0,5.935,3.815,9.591,8.9,9.591a13.235,13.235,0,0,0,5.721-1.273Z" transform="translate(-326.494 -204.371)" fill="#e50019"/>
    <path id="red" d="M368.662,216.63c-.435-.2-5.792-6.514-18.263-6.86a28.387,28.387,0,0,0-18.73,6.464c-5.636,4.605-8.928,12.067-7.705,19.287.946,7.222,6.48,13.587,12.952,16.824a29.511,29.511,0,0,0,19.513,2.314c11.761-2.751,18.358-14.338,17.018-11.1-1.4,3.385-4.27,8.452-7.727,11.273-5.991,4.888-21.013,5.669-30.421.478-9.569-5.07-15.578-16.011-13.507-26.063,1.753-10.051,10.687-17.753,20.461-19.744,9.817-2.229,20.658.922,27.167,7.89" transform="translate(-296.822 -183.756)" fill="#e50019"/>
    <path id="dark-orange" d="M347,192.244a35.964,35.964,0,0,0-20.02,1.191,31.983,31.983,0,0,0-15.571,11.847,27.332,27.332,0,0,0-4.089,22.049,29.879,29.879,0,0,0,13.22,17.8,35.445,35.445,0,0,0,18.306,5.246,34.622,34.622,0,0,0,17.914-4.794,35.353,35.353,0,0,1-8.66,7.3,38.074,38.074,0,0,1-29.083-5.545c-8.484-5.612-14.561-15.725-14.256-26.382.179-10.659,6.569-20.061,14.867-24.943A35.264,35.264,0,0,1,347,192.244" transform="translate(-285.866 -172.055)" fill="#ec4115"/>
  </g>
</svg>
